<svg width="22" height="18" viewBox="0 0 22 18" fill="none" xmlns="http://www.w3.org/2000/svg">
<path d="M5.04045 1.70711C5.43097 1.31658 5.43097 0.683417 5.04045 0.292893C4.64992 -0.0976311 4.01676 -0.0976311 3.62623 0.292893L0.959565 2.95956C0.569041 3.35008 0.569041 3.98325 0.959565 4.37377L3.62623 7.04044C4.01676 7.43096 4.64992 7.43096 5.04045 7.04044C5.43097 6.64992 5.43097 6.01675 5.04045 5.62623L4.08089 4.66667H17.6667C18.219 4.66667 18.6667 4.21895 18.6667 3.66667C18.6667 3.11438 18.219 2.66667 17.6667 2.66667H4.08089L5.04045 1.70711Z" fill="#2E0039"/>
<path d="M16.9596 10.9596C16.569 11.3501 16.569 11.9832 16.9596 12.3738L17.9191 13.3333H4.33334C3.78105 13.3333 3.33334 13.781 3.33334 14.3333C3.33334 14.8856 3.78105 15.3333 4.33334 15.3333H17.9191L16.9596 16.2929C16.569 16.6834 16.569 17.3166 16.9596 17.7071C17.3501 18.0976 17.9833 18.0976 18.3738 17.7071L21.0404 15.0404C21.431 14.6499 21.431 14.0168 21.0404 13.6262L18.3738 10.9596C17.9833 10.569 17.3501 10.569 16.9596 10.9596Z" fill="#2E0039"/>
</svg>
